<?xml version="1.0" encoding="UTF-8" standalone="no"?>
<svg x="0" y="0" width="48" height="48" viewBox="0 0 62 62" version="1.1" xmlns="http://www.w3.org/2000/svg" xmlns:xlink="http://www.w3.org/1999/xlink" xml:space="preserve" xmlns:serif="http://www.serif.com/" style="fill-rule:evenodd;clip-rule:evenodd;stroke-linejoin:round;stroke-miterlimit:2;"><path d="M9.223,46.04l0,4.545c0,2.602 0.449,4.316 1.348,5.144c0.899,0.827 2.72,1.241 5.463,1.241l-0,4.47l-2.057,-0c-3.595,-0 -6.149,-0.792 -7.663,-2.377c-1.513,-1.584 -2.27,-4.268 -2.27,-8.052l-0,-11.706c-0,-2.034 -0.307,-3.548 -0.922,-4.541c-0.615,-0.993 -1.656,-1.679 -3.122,-2.057l-0,-4.186c2.696,-0.757 4.044,-2.862 4.044,-6.315l-0,-12.486c-0,-3.453 0.792,-5.936 2.377,-7.45c1.584,-1.513 4.126,-2.27 7.626,-2.27l1.987,0l-0,4.47c-2.743,0.047 -4.564,0.473 -5.463,1.277c-0.899,0.804 -1.348,2.436 -1.348,4.895l0,4.758c4.79,-6.705 12.636,-11.08 21.497,-11.08c8.861,0 16.707,4.375 21.497,11.08l-0,-4.545c-0,-2.602 -0.449,-4.316 -1.348,-5.144c-0.899,-0.827 -2.72,-1.241 -5.463,-1.241l0,-4.47l1.987,0c3.594,0 6.16,0.792 7.697,2.377c1.537,1.584 2.306,4.268 2.306,8.052l0,11.706c0,3.737 1.348,5.936 4.044,6.598l-0,4.186c-2.696,0.757 -4.044,2.862 -4.044,6.315l0,12.486c0,3.453 -0.78,5.936 -2.341,7.45c-1.561,1.513 -4.115,2.27 -7.662,2.27l-1.987,0l0,-4.47c2.743,-0.047 4.564,-0.473 5.463,-1.277c0.899,-0.804 1.348,-2.436 1.348,-4.895l-0,-4.758c-4.79,6.705 -12.636,11.08 -21.497,11.08c-8.861,0 -16.707,-4.375 -21.497,-11.08Zm42.416,-12.396l-20.897,-0c-0.646,-0 -1.17,-0.524 -1.17,-1.17l0,-3.508c0,-0.646 0.524,-1.17 1.17,-1.17l20.897,0c-1.425,-10.275 -10.254,-18.196 -20.919,-18.196c-11.656,-0 -21.12,9.464 -21.12,21.12c-0,11.656 9.464,21.12 21.12,21.12c10.665,0 19.494,-7.921 20.919,-18.196Z" style="fill:#000;"/>
</svg>
